# xmcd
#
# Track frame offsets:
#	150
#	18183
#	33786
#	50223
#	65911
#	83337
#	97734
#	112004
#	127466
#	144390
#	157543
#	172147
#	189164
#	203369
#	214751
#	230092
#	249512
#	266728
#	283505
#	299160
#	311192
#	323147
#	338464
#
# Disc length: 4725 seconds
#
# Revision: 1
# Processed by: cddbd v1.5.2PL0 Copyright (c) Steve Scherf et al.
# Submitted via: audiograbber 1.83.01
#
DISCID=50127317
DTITLE=Various Artist - CDX 612
DYEAR=2015
DGENRE=Country
TTITLE0=Logan Mize - Can't Get Away From A Good Time (Edit)
TTITLE1=Brad Paisley - Crushin' It
TTITLE2=Gary Allan  - Hangover Tonight
TTITLE3=Ashley Monroe - On To Something Good
TTITLE4=Carrie Underwood - Something In the Water (Acoustic)
TTITLE5=Kenny Chesney w. Grace Potter - Wild Child
TTITLE6=Montgomery Gentry - Folks Like Us
TTITLE7=Blackberry Smoke - Living In The Song
TTITLE8=Macy Martin - Back To Reality
TTITLE9=Sarah Dunn - Bye Bye
TTITLE10=Claire Petit - C'est La Vie You Never Can Tell
TTITLE11=Mindy Miller - Coming Down On Me
TTITLE12=Sammy Hakim - Empty Bottle
TTITLE13=Freddie Hart - God Is Easy Lovin'
TTITLE14=Jordyn Stoddard - Like Me 'Til You Love Me
TTITLE15=Donovan Lee - Marriage
TTITLE16=Barry Michael - On My Island
TTITLE17=Casey Weston - Play it All Again
TTITLE18=Vic Harris Band - Rowdy Cowboy (Clean Version)
TTITLE19=Lorraine Jordan and Carolina Road w The Kentucky Headhunters - Runnin'
TTITLE19=Water
TTITLE20=Jon Wolfe - Smile On Mine
TTITLE21=Wade Bowen - When I Woke Up Today
TTITLE22=Hannah Bethel - You Wanna Be My Man
EXTD=
EXTT0=
EXTT1=
EXTT2=
EXTT3=
EXTT4=
EXTT5=
EXTT6=
EXTT7=
EXTT8=
EXTT9=
EXTT10=
EXTT11=
EXTT12=
EXTT13=
EXTT14=
EXTT15=
EXTT16=
EXTT17=
EXTT18=
EXTT19=
EXTT20=
EXTT21=
EXTT22=
PLAYORDER=
